<?xml version="1.0" standalone="no"?>
<!DOCTYPE svg PUBLIC "-//W3C//DTD SVG 20010904//EN"
 "http://www.w3.org/TR/2001/REC-SVG-20010904/DTD/svg10.dtd">
<svg version="1.0" xmlns="http://www.w3.org/2000/svg"
 width="512.000000pt" height="512.000000pt" viewBox="0 0 512.000000 512.000000"
 preserveAspectRatio="xMidYMid meet">
<metadata>
Created by potrace 1.11, written by Peter Selinger 2001-2013
</metadata>
<g transform="translate(0.000000,512.000000) scale(0.100000,-0.100000)"
fill="#000000" stroke="none">
<path d="M125 4713 c-48 -14 -86 -48 -109 -97 -14 -31 -16 -192 -16 -1658 0
-1561 1 -1625 19 -1664 19 -41 51 -69 104 -92 21 -9 240 -12 883 -12 470 0
853 -3 851 -7 -3 -5 -8 -33 -12 -63 -3 -30 -8 -66 -10 -80 -4 -29 -12 -96 -20
-160 -3 -25 -7 -56 -10 -70 -2 -14 -7 -54 -11 -90 -4 -36 -8 -74 -10 -85 -1
-11 -3 -30 -3 -42 -1 -18 -7 -23 -26 -23 -38 0 -75 -42 -75 -85 0 -43 38 -85
79 -86 34 -1 1580 -1 1607 0 36 2 74 45 74 86 0 42 -39 85 -76 85 -19 0 -24 6
-25 28 0 15 -2 34 -3 42 -2 8 -6 42 -10 75 -4 33 -9 74 -11 90 -2 17 -7 55
-10 85 -4 30 -9 63 -11 75 -2 11 -6 40 -8 65 -9 80 -18 155 -21 160 -2 3 382
4 852 2 828 -2 856 -2 899 17 31 14 52 34 74 67 l30 48 -3 1641 -2 1641 -25
37 c-14 21 -45 47 -69 59 l-44 21 -2405 1 c-1882 1 -2413 -2 -2447 -11z"/>
</g>
</svg>
